<?xml version="1.0"?>
<svg xmlns="http://www.w3.org/2000/svg" viewBox="0 0 50 50" enable-background="new 0 0 50 50">
    <path style="text-indent:0;text-align:start;line-height:normal;text-transform:none;block-progression:tb;-inkscape-font-specification:Bitstream Vera Sans" d="M 6.8125 3 A 1.0001 1.0001 0 0 0 6 4 L 6 46 A 1.0001 1.0001 0 0 0 7 47 L 43 47 A 1.0001 1.0001 0 0 0 44 46 L 44 4 A 1.0001 1.0001 0 0 0 43 3 L 7 3 A 1.0001 1.0001 0 0 0 6.90625 3 A 1.0001 1.0001 0 0 0 6.8125 3 z M 8 5 L 42 5 L 42 45 L 8 45 L 8 5 z M 10 7 L 10 8 L 10 42 L 10 43 L 11 43 L 39 43 L 40 43 L 40 42 L 40 8 L 40 7 L 39 7 L 11 7 L 10 7 z M 12 9 L 24 9 L 24 20 L 12 20 L 12 9 z M 26 9 L 38 9 L 38 20 L 26 20 L 26 9 z M 12 22 L 24 22 L 24 41 L 12 41 L 12 22 z M 26 22 L 38 22 L 38 41 L 26 41 L 26 22 z" overflow="visible" enable-background="accumulate" font-family="Bitstream Vera Sans"/>
</svg>
