<?xml version="1.0"?>
<svg xmlns="http://www.w3.org/2000/svg" viewBox="0 0 50 50" enable-background="new 0 0 50 50">
    <path style="text-indent:0;text-align:start;line-height:normal;text-transform:none;block-progression:tb;-inkscape-font-specification:Bitstream Vera Sans" d="M 6.8125 3 A 1.0001 1.0001 0 0 0 6 4 L 6 5.4375 L 1.28125 4.03125 A 1.0001 1.0001 0 0 0 0.90625 4 A 1.0001 1.0001 0 0 0 0.8125 4 A 1.0001 1.0001 0 0 0 0 5 L 0 45 A 1.0001 1.0001 0 0 0 1.28125 45.96875 L 6 44.5625 L 6 46 A 1.0001 1.0001 0 0 0 7 47 L 43 47 A 1.0001 1.0001 0 0 0 44 46 L 44 44.5625 L 48.71875 45.96875 A 1.0001 1.0001 0 0 0 50 45 L 50 5 A 1.0001 1.0001 0 0 0 48.875 4 A 1.0001 1.0001 0 0 0 48.71875 4.03125 L 44 5.4375 L 44 4 A 1.0001 1.0001 0 0 0 43 3 L 7 3 A 1.0001 1.0001 0 0 0 6.90625 3 A 1.0001 1.0001 0 0 0 6.8125 3 z M 8 5 L 42 5 L 42 6.03125 L 38.8125 7 L 11.1875 7 L 8 6.03125 L 8 5 z M 2 6.34375 L 10 8.75 L 10 19.875 L 2 19.09375 L 2 6.34375 z M 48 6.34375 L 48 19.09375 L 40 19.875 L 40 8.75 L 48 6.34375 z M 12 9 L 38 9 L 38 41 L 12 41 L 12 9 z M 2 21.125 L 10 21.90625 L 10 41.25 L 2 43.65625 L 2 21.125 z M 48 21.125 L 48 43.65625 L 40 41.25 L 40 21.90625 L 48 21.125 z M 11.1875 43 L 38.8125 43 L 42 43.96875 L 42 45 L 8 45 L 8 43.96875 L 11.1875 43 z"/>
</svg>
